<svg version="1.2" xmlns="http://www.w3.org/2000/svg" viewBox="0 0 3307 4134" width="3307" height="4134">
	<title>CDR_FIN-cdr</title>
	<defs>
		<clipPath clipPathUnits="userSpaceOnUse" id="cp1">
			<path d="m0 0h3307v4134h-3307z"/>
		</clipPath>
	</defs>
	<style>
		.s0 { fill: #2c2e35 } 
	</style>
	<g id="Page 1" clip-path="url(#cp1)">
		<g id="Group 1">
			<g id="Group 2">
				<path id="Object 3" class="s0" d="m2887.7 4108.5v-595.8h172.1q101.4 0 166.7 82.3 65.4 82.3 65.4 213.3v15.9q0 127.2-66.1 205.8-66.1 78.5-166 78.5v-173q30.8 0 53.3-31.8 22.5-31.8 22.5-88.9 0-65.5-28.5-98.2-25.6-29-68.4-29v420.9z"/>
				<path id="Object 4" class="s0" d="m2533.3 4108.5v-173h103.8q16.9 0 29.8-6.6 12.9-6.5 12.9-19.6 0-5.6-1.5-9.4-4.4-12.1-14.7-19.6-66.2-59.9-92-98.2-38.3-57.1-38.3-121.6l-1.4-6.6q0-77.6 58.8-115 42-26.2 94.3-26.2h142.8v160.9h-98.7q-16.9 0-27.2 6.5-10.3 6.6-10.3 15.9 0 10.3 16.2 25.3 79.5 77.6 90.5 90.7 44.9 56.1 44.9 116.9v20.6q0 76.7-52.2 120.7-45.7 38.3-111.2 38.3z"/>
				<path id="Object 5" class="s0" d="m1931.4 3512.7h149.8v396.6q0 21.5 7.8 34.1 7.9 12.7 19 12.7 9.7 0 18.3-13.1 8.6-13.1 8.6-33.7v-396.6h149.1v391.8c0 15.6 2.8 28 8.6 37.5q8.5 14.1 20.5 14.1 10.4 0 19.3-12.2c6-8.3 9-19.2 9-32.9v-398.3h149.8v415.6c0 56.6-18.3 103.7-55.1 141q-50.7 51.4-116.3 51.4c-21.4 0-41.7-5.1-60.8-15.3-19.1-10.1-34.4-24.9-45.8-44.6q-19.4 27.2-50 41.7-30.6 14.5-62.6 14.5-67.1 0-115.6-49.6-53.6-55.2-53.6-145z"/>
				<path id="Object 6" class="s0" d="m1740.9 4108.5v-595.8h146v595.8z"/>
			</g>
			<path id="Object 8" fill-rule="evenodd" class="s0" d="m13.8 1660.1c-5.1-906.1 739.5-1640.7 1642.8-1640.7 903.2 0 1635.5 734.6 1635.5 1640.7 0 906.2-732.3 1640.8-1635.2 1640.8-68.4 0-119.6-56.1-119.6-122.1 0-66.1 51.4-121.7 119.7-121.7 754 0.1 1365.6-625.4 1365.6-1397 0-143.5-60.2-317.7-79.8-401.6 98.9-142 149.1-210.3 190.8-271.9-51 31.1-212.6 214.3-290.9 322.6-124.1 171.7-227.7 350.9-190.7 384.2 76.8 69.2 178.9 6.8 217.6 77.4 38.6 70.6-158.2 350.8-253 488.1-94.7 137.3-139.6 206.2-166.7 266.1-27.1 60 0 102.5-40.6 135.4-40.6 32.9-123.8 36.7-123.8 36.7 0 0-13.5 0 1.9 46.4 15.5 46.5 56.1 61.9 56.1 61.9 0 0-108.3 60-170.2-25.1-61.8-85.1-27-111.9 15.5-152.8 76.4-73.5 63.8-139.2 63.8-139.2 0 17.4-29 75.4-72.5 113.1-41.4 35.9-83.6 83.9-65.7 144.1 10.6 35.8 49.3 79.3 74.4 94.7 0 0-70.6 19.4-133.4-34.8-65.5-56.4-53.5-121.1-7.8-171.1 15.7-17.2 34.8-41.6 34.8-41.6 0 0-40.6 26.1-68.6 53.2-25.6 24.7-28 62.1-23.2 93.8 5.8 38.7 35.8 68.6 35.8 68.6 0 0-95-14.4-93.8-117 0.9-83.1 44.4-86 92.8-130.5 48.3-44.5 237.4-314.4 283.3-407.1 47.4-95.7 120.9-240.8 89-283.3-45.7-61-601.5-322-661.4-677.9-60-355.8 170.2-703.9 191.4-738.8 21.3-34.8 253.4-321 253.4-321 0 0-371.3 324.9-469 658.5-98.5 336.6 2.9 554.1 2.9 554.1l-52.2-21.3c0 0-81.2-203-174.1-274.6-92.8-71.6-218.5-89-218.5-89 110.2 60 235.9 137.4 301.7 301.7 62.6 156.7 46.4 363.6 46.4 363.6 0 0-116-181.8-229.2-154.7-112.4 26.9-57 152.8-57 152.8-27.7 1.9-56.4-1.9-84.2 3.9 151.3 46 338.6 53.3 492.2 141.1 105.1 60 132.8 221.2 19.4 207-67.1-8.4-140.2-139.9-288.2-129.6 180.9 40.7 218.3 174.1 289.1 168.2 46.5-3.8 103.5-56 103.5-56l36.8 20.3c-19.4 12.3-89.2 65.5-66.8 88 25 24.9 74.3-54.7 93.8-71.6 0 0 176 38.7 191.5 96.7 15.5 58 6.8 111.2 6.8 111.2-50.5 25.2-60.7-141.4-203.1-46.4 153.9-4.9 81.5 124.4 194.4 85.1-11.6 77.4-66.1 124.2-95.8 139.2-63.3 32-34.6 52.7-116 100.6 0 0 32.9-155.7-58-178.9-90.9-23.2-247.2 90.5-229.2 172.1 33.8 152.8 160.5 82.2 213.7-16.4 9.3 49.6-8 75.5-2.5 120.1 3.9 31.8 25.5 55.7 18.9 89.7-8.5 44.3-138.6 218.2-252.3 174.1-118.2-45.8-61-162.5-142.2-205-81.2-42.6-268.8-121.9-268.8-121.9 0 0-221 56.8-268.8-76.4-80.3-223.3 88.9-334.5 147-354.8-156.4-1.6-243.8 182.9-227.3 306.5-337.7-97.6-579.3-292.3-795.8-708.8 124.2 368 319.3 594.8 783.2 806.5 0 0 3.9 79.3 0 176-3.8 96.7 11.6 168.2 34.9 208.8 23.2 40.6 114.1 110.3 185.6 195.4 71.6 85 197.5 334.2 309.4 384.8 116.9 52.9 311.5-14.8 304.6 181.8-46.4-71-73.4-32.6-157.6-67.7 20.2 48.3 178.9 19.6 155.7 176-67.3-92.6-138.2-48.4-226.3-87 48.3 73.9 256-9.3 227.3 264-69.6-157.6-164.9-73.2-298.8-153.8 68.7 104 323.2 17.7 297.8 341.4-9.7-13.6-59.3-92.6-118-110.3-98.7 49.6-214.6 25.3-279.8-88.6-80-54.6-189.8-127.6-253.6-178.1-629.7-498.3-986.2-1259.3-990.8-2070.9zm1347.1 748.7c5.5 17 12.9 34.5 22.4 52.4 13.8 26 56.9 29.9 51.3-7.8-0.8-5.1-10-23.9-18.2-49.6 27.3-2.7 44.4-5.3 44.3-7.4-1-19.7-22.2-30.1-54.4-33.8-2.5-15.3-3.6-31.6-2.3-48 47.4 9.2 79.8 14.6 80.9 12.2 11.3-25.9-18.5-46.2-68.1-61.3 7.4-15.7 18.3-30.8 33.8-44.5 43.6 27.1 74.3 43.2 86.4 33.5 17.1-13.7-0.1-38.3-35.7-65.1 50.9-22.8 126.2-36.7 235.9-34.8-106.3-36.5-206.1-29.8-277.9 6.8-87.2-51.9-220.6-102-293.6-93.4 92.2 31.5 177.9 85.1 244.2 127.3-18.2 16.6-32.9 36-43.3 57.7-120.5-24.4-295.5-28.6-351.7-16.2 36.1 3.8 210.1 41.7 335.9 67.2-2.8 18.2-3.1 37.4-0.6 57.6-100 5.5-238.6 42.2-286 71.5 35.2-6 191.2-15.7 296.7-24.3zm68.8-431.1c0 0 43.6-54.2 120-31.9 76.3 22.2 71.5 126.7 71.5 126.7l71.6 4.8c0 0-46.5-118.9-117-150.9-58.4-26.3-222.4-15.4-222.4-15.4zm101.6 120c36.9-6.2 64.8-35 64.8-69.5 0-34.5-27.9-63.2-64.8-69.4zm-30.9-138.8c-36.4 6.5-63.9 35.1-63.9 69.3 0 34.2 27.5 62.8 63.9 69.3zm-271-222.4c-81.5-159-437.4-134.5-456.5-77.3-6.7 20.3 14.6 166.3 113.2 238.8 158 116.2 218.2 15.7 192.4 14.5-135.7-6.1-273.6-95.4-273.6-216.6 44.4-34.4 239.9-32.2 424.5 40.6zm-176 112.2c60.9 21.3 111.2 94.8 111.2 94.8 0 0-31-132.5-76.4-160.6-45.5-28-202.1-23.2-202.1-23.2 10.6 71.6 106.4 67.7 167.3 89zm537.7-1806c-512.9 82.7-890 519.5-955.3 947.7 285.1 129.3 358.2 248.1 485.4 493.1-38.9-224.2-173.7-399.1-402.3-524.1 118.6-446.3 447.7-786.7 872.2-916.7zm-155.6 1476.6c109.4 28 157.6 148.9 157.6 148.9l-229.2-46.4c-11.6-15.5-28.7-128.1 71.6-102.5zm-473 1020.8c60.4 42.7 145.3 32.2 214.6 23.2 77.1 53.1 285.8 98.9 267.9 194.4-9.3 49.7-18.4 87-17.4 130.5 1 43.5 23.2 161.5 23.2 161.5 0 0-125.6-6.3-172.1-103.5-46.3-96.8 32.4-215.9-25.2-269.8 14.6 61-29.6 143.6-35.7 177-18.8 102 23.2 153.7 23.2 153.7 0 0-141.2-39.6-154.7-157.6-11.6-101.1 43.5-152.9 8.7-212.7-4.1 64.3-47.3 114.4-57.1 141.2-22.9 62.7 7.7 117 7.7 117-130-60.6-123.1-166.5-83.1-256.3 11.5-25.8 0-98.6 0-98.6zm707-1174.5c0 0 27.9 4.4 57.3 17.6 75.1 128.5 216.3 259.6 351.7 339.2-61.7 75.7-107.5 131.7-150.9 218.5l-44.4-29c-13.5-110.6-111.4-203.3-232.1-232.1 19.9-59.9 39.5-215.1 18.4-314.2z"/>
		</g>
	</g>
</svg>